<svg id="Layer_1" data-name="Layer 1" xmlns="http://www.w3.org/2000/svg" viewBox="0 0 165.73 144.75"><defs><style>.cls-1{fill:#44b6e6;}.cls-2,.cls-4{opacity:0.9;}.cls-3{fill:#d1edf9;}.cls-4{fill:#93d5f0;}.cls-5{fill:#a6dcf3;}.cls-6{fill:#bce5f6;}.cls-7{fill:#e2f4fb;}.cls-8{fill:none;stroke:#b7e3f5;stroke-width:0;}.cls-9{fill:#f4fbfd;}</style></defs><title>Logo 1</title><path class="cls-1" d="M131.59,86.86a8.73,8.73,0,0,0,3-2.21,9.66,9.66,0,0,0,1.8-3.25,10.26,10.26,0,0,0,.48-4,11.31,11.31,0,0,0-1.33-4.58,11.49,11.49,0,0,0-2.8-3.27c-.38-.26-.79-.54-1.23-.81a14.93,14.93,0,0,0-1.39-.65l-.61-.22a6.18,6.18,0,0,0-.73-.23,12.44,12.44,0,0,0-1.5-.3,13.71,13.71,0,0,0-3.14-.08,23.14,23.14,0,0,0-11.77,5.08,44.43,44.43,0,0,0-9,9.56,53.58,53.58,0,0,0-5.81,11,50.72,50.72,0,0,0-2.84,10.15,32.67,32.67,0,0,0-.41,7.45c.07.91.15,1.61.23,2.09s.12.74.12.74l.09.43c.06.29.13.72.29,1.26a19.5,19.5,0,0,0,1.73,4.5,18.39,18.39,0,0,0,4.67,5.56,16,16,0,0,0,8.36,3.52,13.07,13.07,0,0,0,5.16-.54,15.39,15.39,0,0,0,4.6-2.44,59.79,59.79,0,0,0,6.9-6.73,18.12,18.12,0,0,1,6.59-4.68,7.51,7.51,0,0,1,3.29-.47,6.21,6.21,0,0,1,2.82,1c.86.54,1.73,1.19,2.65,1.72a10.86,10.86,0,0,0,2.78,1.16,11.45,11.45,0,0,0,3.91.36,11.11,11.11,0,0,0,4.53-1.33,10.4,10.4,0,0,0,3.11-2.46,9.2,9.2,0,0,0,2.35-6.89,10.31,10.31,0,0,1-4.24,4.74,12.55,12.55,0,0,1-2.73,1.32,11.16,11.16,0,0,1-3.31.73,7.72,7.72,0,0,1-2.6-.25,3.84,3.84,0,0,1-.86-.3,6.26,6.26,0,0,1-1-.46c-.69-.4-1.49-1-2.57-1.68a10.18,10.18,0,0,0-4.5-1.6,11.35,11.35,0,0,0-5,.69,21.79,21.79,0,0,0-8.09,5.64,57.56,57.56,0,0,1-6.42,6.32,11.71,11.71,0,0,1-3.45,1.85,9.14,9.14,0,0,1-3.59.37,12.21,12.21,0,0,1-6.3-2.68,14.77,14.77,0,0,1-3.67-4.36,16,16,0,0,1-1.39-3.62c-.13-.45-.19-.81-.24-1l-.07-.37a6.26,6.26,0,0,1-.1-.62c-.07-.4-.13-1-.2-1.77a28.93,28.93,0,0,1,.38-6.56,50.36,50.36,0,0,1,8-19.54,41.46,41.46,0,0,1,8.16-8.71,19.26,19.26,0,0,1,9.69-4.25,9.86,9.86,0,0,1,2.25.05,8.05,8.05,0,0,1,1.94.5c.34.12.63.31.94.44l.75.49a7.58,7.58,0,0,1,1.77,2.07,12.41,12.41,0,0,1,1.45,6.12,12.28,12.28,0,0,1-.42,3A9.42,9.42,0,0,1,131.59,86.86Z" transform="translate(-37 -25)"/><g class="cls-2"><g class="cls-2"><path class="cls-3" d="M190,112.56c-1.37,1.34-13.16,21.64-14.78,24.19s-4.06,6.82-6.89,11.79l-4.48,7.9-2.34,4.17-1.08,1.93-.52,1-19.74.32-6.89.08h-1.93l-.69,0c.51-.33-10.85-1.89-15.8-2-5.79-.09-11.54-.08-17.06,0-2.76,0-5.46.12-8.08.21l-3.86.14-.93,0-.21,0-.44.09-.2-.22-.14-.16-.07-.08,0,0-.09-.15L83,160.68,81.88,159c-.59-.9-1-1.52-1.51-2.49-.45-.79-2.22-2.66-5.72-8.1-2.4-3.76-5.25-8.86-7.48-12.25-4.23-6.65-17.1-28.29-21.64-35.77-.64-1.05-1.25-2.05-1.81-3l2.11-3.84,2.21-4,4.05-7.17c2.61-4.55,5.13-8.84,8.18-13.94,5.07-8.36,9-15.44,14-24l8.44-14.59,10.33,0c9.89.15,19,.23,29.56.21,1.42,0,2.83,0,3.84-.1s3.74,0,5.15-.06c8.58.11,16.34.44,24.72.37,2.32,0,5.76-.15,5-.29a162.85,162.85,0,0,0-17.61-1.68C136.62,28,127.43,28,118,27.84A249.41,249.41,0,0,1,89,26c-1.11-.15-2.16-.33-3.28-.51l-.85-.14-1.52-.13L79.9,25l-4,6.06c-1.08,1.67-2.29,3.67-3.7,6.13C65.79,48.51,60.32,59,53.39,70.37L46.58,81.49,43.26,87l-3.52,5.89L37,97.48l4.15,7.4c5.41,9.22,11.46,20.17,15.68,26.26,6.08,10.13,8.89,15.5,14,23.42L75,161.1l2.13,3.32.53.84.81,1.31,1.75,2.85,4.43-.11,2.78-.1,5.46-.18c3.7-.11,7.52-.19,11.51-.23,8-.11,15.34-.11,23,0,2.72,0,12.39.61,15.32.8,2.65.16,6,.2,9.29.15,1.66,0,3.33-.06,4.92-.11l6.37-.17.33-.61,1.28-2.4.62-1.16.37-.73c.5-1,1-1.94,1.5-2.91l3.11-6c2.14-4,4.42-8.3,6.94-12.91,1.84-3.25,3.69-6.14,5.76-9.73,4.82-8.52,8-14.85,12.12-22.37l7.4-13.18-3.14-5.26-2-3.21c-1.07-1.76-1.73-2.8-2.14-3.44a15,15,0,0,1-.9-1.37c-1.62-2.79-2-4.09-3.93-7.61-2.69-4.75-5.53-9.29-7.48-12.25-5.72-8.83-12.63-19.66-19-31.35a17.35,17.35,0,0,0,.85,1.84c9,16.37,15.77,29.67,25.77,46.85,1,1.64,2.29,3.7,3.46,5.7l5.69,9.71.22.39c-.34.59-.73,1.23-1.13,1.87l-1.49,2.37c-1,1.63-2.14,3.28-3.16,4.79A69.48,69.48,0,0,1,190,112.56Z" transform="translate(-37 -25)"/><path class="cls-4" d="M117.7,27.85c9.49.11,18.67.12,25.82.55a166.05,166.05,0,0,1,17.62,1.67c.71.14-2.73.28-5.06.3-8.37.06-16.13-.27-24.71-.37-1.41,0-4.14,0-5.15.06s-2.42.08-3.83.1c-10.61,0-19.69-.06-29.57-.21l-10.07,0c-2.82,4.86-5.4,9.34-8.56,14.79-5.06,8.61-9,15.69-14,24.06-3,5.06-5.54,9.33-8.13,13.86l-4,7.11-2.19,4-2.08,3.78,1.94,3.16c4.54,7.48,17.41,29.12,21.64,35.77,2.23,3.39,5.08,8.5,7.47,12.25,0,0,1.4,2.94,4.61,9.34L41.8,97.48l3.83-7.14L81.57,27.9Z" transform="translate(-37 -25)"/><path class="cls-5" d="M74.46,149.3l3.13,5,5.82,9.52,1.61,0h2.75c1.76,0,3.35,0,4.63,0,2.57.08,3.94.25,3.12.57l-3.75.42-9.49,1-2.14-3c-.78-1.11-1.57-2.26-2.38-3.43-1.62-2.34-3.3-4.81-5-7.33-3.34-5-6.66-10.25-9.45-15,0,0-7.23-12.37-11-18.82,0,0-1.18-2.26-3.17-5.88L45.62,106l-2.14-3.74-2.77-4.75,1.83-3.24c.46-.84.93-1.7,1.41-2.56,0,0,29.82-53.31,32.39-56.83L81,26.93l7.45.09,6.65.12c4.31.08,8.13.18,10.13.29,0,0,9.56.95,20.76.84,0,0,33.89,1,16.63,1.14l-15.15.27-45.06-.3L71.88,47.26c-2.93,4.93-5,8.35-5.47,9.08,0,0-2.85,4.81-7.29,12.33S48.7,86.46,42.4,97.48C53.76,117,66.55,138.24,74.46,149.3Z" transform="translate(-37 -25)"/><path class="cls-6" d="M75.38,150.15l2.83,4.33,3,4.63,1.69,2.71c.36.59.41.65.55.86l.37.55,1,0,2.15,0c1.61,0,3.21,0,4.78,0,3.14,0,6.13.15,8.69.37,0,0,36.94,1.26,26,2.07l-12.89.85-14.07.81-8.33.41-4.42.2-2.46.1-3.21.09L70.82,151.69c-3.24-5.3-6.48-10.7-9.6-16,0,0-2.07-3.59-6.35-10,0,0-2.69-4.4-5.87-9.81-1.59-2.71-3.31-5.68-4.87-8.47-.78-1.4-1.53-2.76-2.2-4l-2.37-4.5-.75-1.37L40.92,94,43,90.65l5.15-8.38C51.87,76.14,55.92,69.4,58.36,65c0,0,5.1-7.76,8.07-13.4,0,0-3.71,6.69-8.71,15.67l-8.2,14.65-8.8,15.54,3.71,6.37,2.75,4.8c1.63,2.87,2.8,5,3.3,6.08,0,0,13.46,24.84,30.05,48.77a5.16,5.16,0,0,0,.73.69c.36.27.68.35.72-.08a3.24,3.24,0,0,0-.13-1,25.61,25.61,0,0,0-1-2.47C79.84,158.47,78.14,155.14,75.38,150.15Z" transform="translate(-37 -25)"/><path class="cls-7" d="M84.76,162.14l.14,0,.76,0,1.53-.1,3.12-.19q3.14-.19,6.46-.35c2.42-.08,6.06,0,8.89-.1,3.73,0,7.66.1,10.29.19,12,.56,31.1.57,41.48,1.29l1,.05a1,1,0,0,1,.27,0h.15c.21,0,.43,0,.67,0l.15-.24.2-.46.06-.13.2-.36c.12-.23.21-.42.27-.54,2.76-4.82,5.53-9.51,8.05-14,4.13-7.41,8.52-14.42,12.69-21,2.31-3.67,5.08-8.26,7.62-12.38,4.39-7.13,5.38-7.23,9.53-14.15l1.34-2.21-1.78-3.14-2.13-3.66-4.27-7.21c-2.84-4.79-5.7-9.62-8.59-14.82-3.65-6.63-7-12.53-10.21-18.69-2.36-4.57-5.11-9.62-7.74-14.62a41.76,41.76,0,0,1-1.87-4c.39.47,1.9,3.21,2.9,4.84,2.74,4.49,3.71,7,5.28,10,2,3.84,4.92,8.69,7.61,13.43,1.06,2,1.85,3.47,2.81,5.36,1.29,2.63,3.58,6.33,5.76,10,2.73,4.49,5.26,9.43,8.05,14.23.9,1.55,1.78,3,2.64,4.45s1.62,2.63,2.39,3.9c-.35.66-.71,1.31-1.06,2l-1.16,2.1c-.79,1.4-1.59,2.76-2.42,4.11,2.77-4.45-11.27,19.61-8.52,14.66a11.71,11.71,0,0,1-1.4,2c0-.13-.24.08,0-.37a14.56,14.56,0,0,0,1.76-5l-4.27,7.2c-2.24,3.78-4.84,8.11-6.34,10.44-2.32,3.55-4.42,6.64-7.18,11.34-.68,1.23-.9,1.93-1.59,3.17l-3,5.51c-.78,1.44-1.67,3.08-2.62,4.86l-1.49,2.76c-.31.56-.36.69-.53,1s-.29.58-.44.87l-1.29.06-.91,0-1.13,0-4.53.13-8.5.24c-5.22.13-9.27.22-10.54.19-2.62-.09-5.95-.32-5.23-.48.72-.46-4-.66-5.73-1.05-.3-.1.81-.22.52-.33a46.15,46.15,0,0,0-7.25-.65c-5.25-.18-11.61-.23-16.35-.14Z" transform="translate(-37 -25)"/><path class="cls-8" d="M67.52,45.6S58.38,62.72,48.08,79l-4,6.58L40.86,91c-.63,1-1.21,2-1.73,2.92L37,97.48,37.94,99l2.17,3.9,1.26,2.33s12.57,22,15.32,25.66c0,0,6.31,10.52,7.18,12.23,0,0,4.84,8.51,11.53,18.54" transform="translate(-37 -25)"/><path class="cls-9" d="M172.11,140.28c2.16-3.57,12.47-20.45,15.41-25,2.06-3.19,4.07-6.28,6.07-9.37l3-4.62L198.11,99l1.06-1.53-.77-1.63c-.39-.73-1-1.82-1.37-2.37-2.89-4.48-6-10.16-8.63-14.52-1.15-1.9-2.27-3.59-3.46-5.7-6.27-11.06-11.8-21.38-16.82-31-2.1-4.07-3.75-7.54-5.78-11.57a10.15,10.15,0,0,1-.83-1.91c0-.21,1,1.62,1.54,2.57.6,1.15,1.1,2.13,1.89,3.67,1.47,2.81,3.44,6.25,4.72,8.77,1.46,2.8,2.55,5,4.19,8.13,1.12,2.07,2.13,3.9,3.32,6,4.22,7.59,8.4,15,12.73,22.41,1.92,2.86,4.39,7.49,6.36,10.93.6,1.06,1.13,2.07,1.83,3.37.56,1,1.13,1.94,1.67,2.89l-1.31,2.25c-.52.87-1,1.66-1.45,2.32-2.79,4-5.58,8.18-8.82,13.21-2.63,4.07-13.42,21.52-16.18,26.13-3.69,6.1-7.05,12.25-10.58,18.21C161.11,160.12,163.35,155,172.11,140.28Z" transform="translate(-37 -25)"/></g></g></svg>